<svg xmlns="http://www.w3.org/2000/svg" width="30" height="30" viewBox="0 0 30 30" fill="none">
  <g clip-path="url(#clip0_79_27)">
    <path d="M8.78759 0.105C7.19159 0.1803 6.10169 0.435 5.14889 0.8094C4.16279 1.1937 3.32699 1.7094 2.49539 2.544C1.66379 3.3786 1.15169 4.215 0.770094 5.2026C0.400794 6.1575 0.150594 7.2483 0.0800938 8.8452C0.00959381 10.4421 -0.0060062 10.9554 0.0017938 15.0288C0.0095938 19.1022 0.0275938 19.6128 0.104994 21.213C0.181194 22.8087 0.434994 23.8983 0.809394 24.8514C1.19429 25.8375 1.70939 26.673 2.54429 27.5049C3.37919 28.3368 4.21499 28.8477 5.20499 29.2299C6.15899 29.5986 7.25009 29.85 8.84669 29.9199C10.4433 29.9898 10.9572 30.006 15.0294 29.9982C19.1016 29.9904 19.6143 29.9724 21.2142 29.8965C22.8141 29.8206 23.898 29.565 24.8514 29.1924C25.8375 28.8066 26.6736 28.2924 27.5049 27.4572C28.3362 26.622 28.848 25.785 29.2293 24.7968C29.5989 23.8428 29.85 22.7517 29.9193 21.1563C29.9892 19.5552 30.0057 19.044 29.9979 14.9712C29.9901 10.8984 29.9718 10.3878 29.8959 8.7882C29.82 7.1886 29.5659 6.1023 29.1918 5.1486C28.8063 4.1625 28.2918 3.3276 27.4572 2.4951C26.6226 1.6626 25.785 1.1511 24.7971 0.7707C23.8425 0.4014 22.752 0.1497 21.1554 0.0806999C19.5588 0.0116999 19.0449 -0.00600012 14.9712 0.00179988C10.8975 0.00959988 10.3875 0.0269999 8.78759 0.105ZM8.96279 27.2214C7.50029 27.1578 6.70619 26.9148 6.17699 26.7114C5.47619 26.4414 4.97699 26.115 4.44959 25.5927C3.92219 25.0704 3.59819 24.5694 3.32459 23.8701C3.11909 23.3409 2.87159 22.5477 2.80319 21.0852C2.72879 19.5045 2.71319 19.0299 2.70449 15.0252C2.69579 11.0205 2.71109 10.5465 2.78039 8.9652C2.84279 7.5039 3.08729 6.7089 3.29039 6.18C3.56039 5.4783 3.88559 4.98 4.40909 4.4529C4.93259 3.9258 5.43209 3.6012 6.13199 3.3276C6.66059 3.1212 7.45379 2.8758 8.91569 2.8062C10.4976 2.7312 10.9716 2.7162 14.9757 2.7075C18.9798 2.6988 19.455 2.7138 21.0375 2.7834C22.4988 2.847 23.2941 3.0891 23.8224 3.2934C24.5235 3.5634 25.0224 3.8877 25.5495 4.4121C26.0766 4.9365 26.4015 5.4342 26.6751 6.1356C26.8818 6.6627 27.1272 7.4556 27.1962 8.9184C27.2715 10.5003 27.2886 10.9746 27.2958 14.9784C27.303 18.9822 27.2889 19.4577 27.2196 21.0384C27.1557 22.5009 26.9133 23.2953 26.7096 23.8251C26.4396 24.5256 26.1141 25.0251 25.5903 25.5519C25.0665 26.0787 24.5676 26.4033 23.8674 26.6769C23.3394 26.883 22.5453 27.129 21.0846 27.1986C19.5027 27.273 19.0287 27.2886 15.0231 27.2973C11.0175 27.306 10.545 27.2898 8.96309 27.2214M21.1911 6.9831C21.1917 7.33913 21.2979 7.68699 21.4962 7.98268C21.6945 8.27837 21.976 8.50861 22.3052 8.64428C22.6343 8.77995 22.9964 8.81496 23.3454 8.74488C23.6945 8.67479 24.0149 8.50277 24.2662 8.25055C24.5175 7.99834 24.6884 7.67727 24.7572 7.32795C24.826 6.97863 24.7896 6.61675 24.6528 6.28808C24.5159 5.95941 24.2846 5.67872 23.9882 5.4815C23.6918 5.28428 23.3435 5.17939 22.9875 5.1801C22.5102 5.18105 22.0528 5.37153 21.716 5.70964C21.3791 6.04775 21.1903 6.50581 21.1911 6.9831ZM7.29809 15.015C7.30649 19.269 10.7613 22.7097 15.0144 22.7016C19.2675 22.6935 22.7106 19.239 22.7025 14.985C22.6944 10.731 19.2387 7.2894 14.985 7.2978C10.7313 7.3062 7.28999 10.7616 7.29809 15.015ZM9.99989 15.0096C9.99794 14.0207 10.2893 13.0534 10.8371 12.23C11.3849 11.4067 12.1645 10.7643 13.0774 10.384C13.9903 10.0038 14.9954 9.90275 15.9657 10.0938C16.936 10.2848 17.8279 10.7592 18.5286 11.4571C19.2292 12.155 19.7072 13.045 19.9021 14.0145C20.0969 14.9841 19.9999 15.9896 19.6233 16.904C19.2466 17.8184 18.6073 18.6006 17.7861 19.1516C16.965 19.7027 15.9988 19.9978 15.0099 19.9998C14.3532 20.0012 13.7028 19.8732 13.0956 19.6231C12.4884 19.3731 11.9364 19.0059 11.4712 18.5425C11.006 18.0791 10.6366 17.5286 10.3841 16.9224C10.1317 16.3162 10.0011 15.6662 9.99989 15.0096Z" fill="#DA722C"/>
  </g>
  <defs>
    <clipPath id="clip0_79_27">
      <rect width="30" height="30" fill="white"/>
    </clipPath>
  </defs>
</svg>