<svg xmlns="http://www.w3.org/2000/svg" width="30" height="30" viewBox="0 0 30 30" fill="none">
  <g clip-path="url(#clip0_79_34)">
    <path d="M20.6231 3.72288C19.3645 2.90143 18.602 1.50341 18.602 0H15.4092L15.403 12.7929C15.3472 14.2715 14.1011 15.4278 12.6225 15.3689C11.1438 15.3131 9.98761 14.067 10.0465 12.5883C10.1023 11.1469 11.2864 10.0093 12.7278 10.0093C12.9975 10.0093 13.2641 10.0527 13.5183 10.1333V6.87229C13.2548 6.83509 12.9913 6.81649 12.7278 6.81339C9.48854 6.81339 6.8537 9.44823 6.8537 12.6875C6.8599 15.9299 9.48544 18.5586 12.7309 18.5617C15.9703 18.5617 18.6051 15.9268 18.6051 12.6875V6.20273C19.8977 7.13267 21.4507 7.63484 23.044 7.63174V4.43893C22.1823 4.44203 21.3422 4.19095 20.6231 3.72288Z" fill="#DA722C"/>
    <path d="M0 22.1699H5.14259L4.67142 23.6423H3.3385V29.0825H1.6739V23.6392L0 23.6423V22.1699Z" fill="#DA722C"/>
    <path d="M13.5679 22.1699H18.8283L18.3571 23.6423H16.9064V29.0825H15.2418V23.6392L13.5679 23.6423V22.1699Z" fill="#DA722C"/>
    <path d="M5.45569 24.3676H7.10479V29.0794H5.46499L5.45569 24.3676Z" fill="#DA722C"/>
    <path d="M7.75885 22.1482H9.40485V25.3658L11.0385 23.7632H13.0037L10.9393 25.7657L13.2517 29.0763H11.4383L9.89462 26.7824L9.40485 27.2567V29.0763H7.75885V22.1482Z" fill="#DA722C"/>
    <path d="M24.5071 22.1482H26.1531V25.3658L27.7867 23.7632H29.752L27.6876 25.7657L30 29.0763H28.1866L26.6429 26.7824L26.1531 27.2567V29.0763H24.5071V22.1482Z" fill="#DA722C"/>
    <path d="M6.28021 23.8283C6.73902 23.8283 7.11096 23.4563 7.11096 22.9975C7.11096 22.5387 6.73902 22.1668 6.28021 22.1668C5.8214 22.1668 5.44946 22.5387 5.44946 22.9975C5.44946 23.4563 5.8214 23.8283 6.28021 23.8283Z" fill="#DA722C"/>
    <path d="M21.0168 23.4377C19.4575 23.4377 18.1959 24.6993 18.1959 26.2585C18.1959 27.8177 19.4575 29.0794 21.0168 29.0794C22.576 29.0794 23.8376 27.8177 23.8376 26.2585C23.8376 24.6993 22.5729 23.4377 21.0168 23.4377ZM21.0168 27.6286C20.2604 27.6286 19.6466 27.0149 19.6466 26.2585C19.6466 25.5022 20.2604 24.8884 21.0168 24.8884C21.7731 24.8884 22.3869 25.5022 22.3869 26.2585C22.3869 27.0149 21.7731 27.6286 21.0168 27.6286Z" fill="#DA722C"/>
  </g>
  <defs>
    <clipPath id="clip0_79_34">
      <rect width="30" height="29.0794" fill="white"/>
    </clipPath>
  </defs>
</svg>