<svg xmlns="http://www.w3.org/2000/svg" width="43" height="30" viewBox="0 0 43 30" fill="none">
  <g clip-path="url(#clip0_79_22)">
    <path d="M41.6908 4.6846C41.2011 2.84057 39.7585 1.38847 37.9263 0.895647C34.6057 1.35552e-06 21.2903 8.9407e-07 21.2903 8.9407e-07C21.2903 8.9407e-07 7.97499 1.35552e-06 4.65433 0.895647C2.82232 1.38847 1.37941 2.84057 0.889773 4.6846C0 8.02677 0 15 0 15C0 15 0 21.9731 0.889773 25.3156C1.37941 27.1594 2.82232 28.6115 4.65433 29.1046C7.97499 30 21.2903 30 21.2903 30C21.2903 30 34.6057 30 37.9263 29.1046C39.7585 28.6115 41.2011 27.1594 41.6908 25.3156C42.5806 21.9731 42.5806 15 42.5806 15C42.5806 15 42.5806 8.02677 41.6908 4.6846Z" fill="#DA722C"/>
    <path d="M16.9355 21.3311L28.0645 15.0003L16.9355 8.66884V21.3311Z" fill="#E8F7FB"/>
  </g>
  <defs>
    <clipPath id="clip0_79_22">
      <rect width="42.5806" height="30" fill="white"/>
    </clipPath>
  </defs>
</svg>